<?xml version="1.0" encoding="UTF-8"?>
<svg width="52px" height="28px" viewBox="0 0 52 28" version="1.1" xmlns="http://www.w3.org/2000/svg" xmlns:xlink="http://www.w3.org/1999/xlink">
    <title>Fill 1</title>
    <g id="Symbols" stroke="none" stroke-width="1" fill="none" fill-rule="evenodd">
        <g id="Brand/logo" transform="translate(0.000000, -6.000000)" fill="#FFFFFF">
            <g id="Group-19" transform="translate(0.000000, 6.000000)">
                <path d="M48.6616,24.8061 C47.6936,25.8961 45.8576,25.5991 42.7846,23.9021 C41.0086,22.9331 39.0666,21.6181 37.0126,20.2281 L36.2236,19.6991 C34.9676,18.8551 33.6686,17.9831 32.4216,17.2181 C32.0956,17.0221 31.7686,16.8271 31.4676,16.6551 L30.8326,16.3041 C30.1396,15.9201 29.5406,15.6241 29.0396,15.4141 C28.9376,15.3671 28.8366,15.3231 28.7126,15.2711 L28.7126,15.2701 C28.5206,15.1861 28.3276,15.1041 28.1346,15.0251 L28.0256,14.9601 L27.9756,14.9601 C24.6466,13.6181 21.1286,12.9381 17.5076,12.9381 C14.5526,12.9381 11.6856,13.3961 8.9366,14.2821 C13.8786,9.7021 20.1486,5.4451 22.3716,4.1521 C23.3316,3.5921 24.5176,3.2961 25.8016,3.2961 C27.0916,3.2961 28.3386,3.6021 29.3126,4.1581 C34.6586,7.2061 48.2086,17.5781 49.0916,22.9811 L49.0926,22.9891 C49.2196,23.7421 49.0786,24.3361 48.6616,24.8061 M4.4186,25.3681 C3.8016,25.3681 3.3536,25.1891 3.0146,24.8081 C2.5706,24.3061 2.4156,23.6741 2.5426,22.8721 C2.5916,22.5571 2.6906,22.2121 2.8396,21.8401 C2.8496,21.8121 2.8656,21.7821 2.8776,21.7551 C2.9436,21.5951 3.0136,21.4321 3.0976,21.2631 C3.1296,21.1981 3.1706,21.1291 3.2046,21.0631 C3.2766,20.9251 3.3466,20.7891 3.4286,20.6461 L3.5066,20.5181 C3.5126,20.5081 3.5206,20.4971 3.5266,20.4871 C4.1376,19.4661 5.0966,18.6151 6.3016,18.0241 C9.8016,16.3081 13.5716,15.4381 17.5076,15.4381 C18.9326,15.4381 20.3396,15.5531 21.7226,15.7841 C21.6666,15.8101 21.6096,15.8421 21.5536,15.8691 C21.3746,15.9571 21.1936,16.0481 21.0106,16.1431 C20.9126,16.1941 20.8146,16.2451 20.7146,16.2981 C20.5296,16.3981 20.3416,16.5011 20.1536,16.6061 C20.0606,16.6581 19.9696,16.7081 19.8766,16.7611 C19.6306,16.9021 19.3826,17.0471 19.1336,17.1961 C19.0806,17.2271 19.0286,17.2581 18.9756,17.2901 C18.7156,17.4461 18.4536,17.6071 18.1906,17.7711 C18.0726,17.8451 17.9536,17.9211 17.8346,17.9961 C17.6636,18.1041 17.4926,18.2121 17.3206,18.3231 C17.1876,18.4081 17.0536,18.4951 16.9196,18.5811 C16.7596,18.6861 16.5986,18.7901 16.4376,18.8961 C16.3016,18.9851 16.1666,19.0731 16.0306,19.1631 C15.8656,19.2721 15.6996,19.3821 15.5346,19.4921 C15.4006,19.5811 15.2656,19.6701 15.1316,19.7591 C14.8606,19.9401 14.5896,20.1211 14.3196,20.3021 C10.5766,22.7931 6.7066,25.3681 4.4186,25.3681 M51.5576,22.5751 C50.3896,15.4541 34.6696,4.3351 30.5506,1.9861 C29.2046,1.2191 27.5186,0.7961 25.8016,0.7961 C24.0766,0.7961 22.4546,1.2091 21.1146,1.9911 C17.9316,3.8421 7.6646,10.8931 2.7376,17.2401 C2.2336,17.8891 1.7976,18.5151 1.4386,19.1051 L1.3486,19.2491 C0.6436,20.4401 0.2256,21.4981 0.0726,22.4861 C-0.1704,24.0231 0.1996,25.3991 1.1446,26.4681 C1.9616,27.3841 3.0936,27.8691 4.4186,27.8691 C7.4626,27.8691 11.4656,25.2041 15.7696,22.3401 C19.2656,20.0021 23.6156,17.0921 25.8366,17.0921 C26.1866,17.0921 26.6346,17.1831 27.1686,17.3631 L27.3076,17.4111 C27.4266,17.4521 27.5466,17.4981 27.6686,17.5461 L28.0316,17.7021 C28.4876,17.8931 29.0086,18.1521 29.6736,18.5201 C29.7506,18.5631 29.8306,18.6071 29.8536,18.6171 C29.9016,18.6441 29.9496,18.6681 30.0066,18.6961 L30.2096,18.8151 C30.5126,18.9891 30.8226,19.1741 31.1236,19.3561 C32.3186,20.0871 33.5946,20.9451 34.8296,21.7741 L35.6106,22.2981 C37.7166,23.7241 39.7056,25.0711 41.5826,26.0941 C43.8556,27.3491 45.6136,27.9331 47.1146,27.9331 C48.5166,27.9331 49.6666,27.4401 50.5306,26.4661 C51.4566,25.4231 51.8106,24.0781 51.5576,22.5751" id="Fill-1"></path>
            </g>
        </g>
    </g>
</svg>